# xmcd
#
# Track frame offsets:
#	150
#	25253
#	41578
#	71800
#	85938
#	118790
#	136900
#	151155
#	173578
#	188830
#
# Disc length: 2868 seconds
#
# Revision: 4
# Processed by: cddbd v1.5.2PL0 Copyright (c) Steve Scherf et al.
# Submitted via: EasyCDDAExtractor 16.0.6.1
#
DISCID=7e0b320a
DTITLE=Irma Thomas - Walk Around Heaven:  New Orleans Gospel Soul
DYEAR=1994
DGENRE=Soul
TTITLE0=Ask What You Will
TTITLE1=I Know Prayer Changes Things
TTITLE2=Careful Hands
TTITLE3=Hold to God's Unchanging Hand
TTITLE4=No, Not One
TTITLE5=I Will Say Yes Lord
TTITLE6=Walk Around Heaven All Day
TTITLE7=Oh, Holy Night
TTITLE8=Just a Little While to Stay Here
TTITLE9=Where We'll Never Grow Old
EXTD=
EXTT0=
EXTT1=
EXTT2=
EXTT3=
EXTT4=
EXTT5=
EXTT6=
EXTT7=
EXTT8=
EXTT9=
PLAYORDER=
